HIERARCHY
ROOT Hips
{
	OFFSET 0.000000 0.000000 0.000000
	CHANNELS 6 Xposition Yposition Zposition Zrotation Yrotation Xrotation 
	JOINT LeftUpLeg_virtual
	{
		OFFSET 0.000000 0.000000 0.000000
		CHANNELS 3 Zrotation Yrotation Xrotation
		JOINT LeftUpLeg
		{
			OFFSET 10.205400 -3.823500 0.155100
			CHANNELS 3 Zrotation Yrotation Xrotation
			JOINT LeftLeg
			{
				OFFSET 0.708757 -12.982077 0.567790
				CHANNELS 3 Zrotation Yrotation Xrotation
				JOINT LeftFoot
				{
					OFFSET -0.708756 -10.717838 -2.184338
					CHANNELS 3 Zrotation Yrotation Xrotation
					JOINT LeftToeBase
					{
						OFFSET 0.108149 -7.191104 7.560241
						CHANNELS 3 Zrotation Yrotation Xrotation
						End Site
						{
							OFFSET 0.000000 0.000000 0.000000
						}
					}
				}
			}
		}
	}
	JOINT RightUpLeg_virtual
	{
		OFFSET 0.000000 0.000000 0.000000
		CHANNELS 3 Zrotation Yrotation Xrotation
		JOINT RightUpLeg
		{
			OFFSET -10.205400 -3.823500 0.005500
			CHANNELS 3 Zrotation Yrotation Xrotation
			JOINT RightLeg
			{
				OFFSET -0.708756 -12.982134 0.610632
				CHANNELS 3 Zrotation Yrotation Xrotation
				JOINT RightFoot
				{
					OFFSET 0.708754 -10.717769 -1.945823
					CHANNELS 3 Zrotation Yrotation Xrotation
					JOINT RightToeBase
					{
						OFFSET -0.108140 -7.191069 7.372968
						CHANNELS 3 Zrotation Yrotation Xrotation
						End Site
						{
							OFFSET 0.000000 0.000000 0.000000
						}
					}
				}
			}
		}
	}
	JOINT Spine_virtual
	{
		OFFSET 0.000000 0.000000 0.000000
		CHANNELS 3 Zrotation Yrotation Xrotation
		JOINT Spine
		{
			OFFSET 0.000000 6.876099 0.125700
			CHANNELS 3 Zrotation Yrotation Xrotation
			JOINT Spine1
			{
				OFFSET 0.000000 8.022060 0.146608
				CHANNELS 3 Zrotation Yrotation Xrotation
				JOINT Spine2
				{
					OFFSET 0.000000 9.168068 0.167552
					CHANNELS 3 Zrotation Yrotation Xrotation
					JOINT Neck_virtual
					{
						OFFSET 0.000000 0.000000 0.000000
						CHANNELS 3 Zrotation Yrotation Xrotation
						JOINT Neck
						{
							OFFSET 0.000000 10.314075 0.188496
							CHANNELS 3 Zrotation Yrotation Xrotation
							JOINT Head
							{
								OFFSET 0.000000 7.643700 -2.377400
								CHANNELS 3 Zrotation Yrotation Xrotation
								End Site
								{
									OFFSET 0.000000 0.000000 0.000000
								}
							}
						}
					}
					JOINT LeftShoulder_virtual
					{
						OFFSET 0.000000 0.000000 0.000000
						CHANNELS 3 Zrotation Yrotation Xrotation
						JOINT LeftShoulder
						{
							OFFSET 4.392200 8.824978 0.174984
							CHANNELS 3 Zrotation Yrotation Xrotation
							JOINT LeftArm
							{
								OFFSET 8.771219 -2.981674 -0.026999
								CHANNELS 3 Zrotation Yrotation Xrotation
								JOINT LeftForeArm
								{
									OFFSET 8.512804 0.000000 -0.000000
									CHANNELS 3 Zrotation Yrotation Xrotation
									JOINT LeftHand
									{
										OFFSET 18.484802 0.000000 -0.000000
										CHANNELS 3 Zrotation Yrotation Xrotation
										End Site
										{
											OFFSET 0.000000 0.000000 0.000000
										}
									}
								}
							}
						}
					}
					JOINT RightShoulder_virtual
					{
						OFFSET 0.000000 0.000000 0.000000
						CHANNELS 3 Zrotation Yrotation Xrotation
						JOINT RightShoulder
						{
							OFFSET -4.392200 8.824993 0.141379
							CHANNELS 3 Zrotation Yrotation Xrotation
							JOINT RightArm
							{
								OFFSET -8.771282 -2.981682 -0.094208
								CHANNELS 3 Zrotation Yrotation Xrotation
								JOINT RightForeArm
								{
									OFFSET -8.494598 0.000000 0.000000
									CHANNELS 3 Zrotation Yrotation Xrotation
									JOINT RightHand
									{
										OFFSET -18.483803 0.000000 0.000001
										CHANNELS 3 Zrotation Yrotation Xrotation
										End Site
										{
											OFFSET 0.000000 0.000000 0.000000
										}
									}
								}
							}
						}
					}
				}
			}
		}
	}
}
MOTION
Frames: 8
Frame Time: 0.033333
2.570128 36.620022 -10.664278 179.884698 -2.487405 179.742466 -2.609461 -1.004332 11.714575 2.222117 -8.452422 -12.184683 5.463017 9.027292 14.480715 -1.441495 0.655612 7.883646 0.000000 0.000000 0.000000 1.795308 -0.550088 11.297415 -2.237338 4.230814 -4.853722 -10.033215 1.443935 11.085872 8.625900 4.668105 8.861572 0.000000 0.000000 0.000000 0.178823 1.308581 -0.474950 -3.510981 0.088572 -12.097126 -1.532027 -3.947192 5.229144 -0.033459 -0.085608 -0.041094 -1.963636 -1.869228 6.863012 1.035755 1.858666 5.754081 0.000000 0.000000 0.000000 -0.083633 -1.134183 4.008538 8.037209 8.579841 -5.741859 2.672421 17.194468 -37.306227 -1.819997 -49.354950 -6.259722 0.000000 0.000000 0.000000 -4.302617 -0.259880 3.387087 7.233415 -9.846021 -7.613405 17.848107 -28.613512 -39.998800 -4.732183 44.964542 -5.529765 0.000000 0.000000 0.000000 
2.567913 36.626217 -10.669465 179.916581 -2.548653 179.625588 -2.559088 -0.816620 11.561278 2.024028 -8.641627 -12.480103 5.146242 9.391432 14.144861 -1.786803 0.353573 7.519385 0.000000 0.000000 0.000000 1.793758 -0.408224 11.402828 -2.395323 4.468107 -4.813738 -10.333892 1.197506 11.082449 8.348189 4.436631 8.802242 0.000000 0.000000 0.000000 0.192714 1.403069 -0.378079 -3.469837 0.185749 -12.012610 -1.523855 -4.014732 5.291285 -0.012364 -0.194959 -0.040826 -1.996203 -1.465481 6.735320 1.008663 1.811158 5.619177 0.000000 0.000000 0.000000 -0.179114 -1.094683 3.968747 8.002352 8.514007 -5.870079 2.780343 17.194180 -37.323159 -1.765511 -49.195889 -6.236441 0.000000 0.000000 0.000000 -4.368022 -0.223507 3.297624 7.233053 -9.858534 -7.600659 17.786176 -28.692057 -39.973143 -4.808122 44.948683 -5.750904 0.000000 0.000000 0.000000 
2.566259 36.622818 -10.678648 179.852309 -2.726195 179.604018 -2.604303 -0.796385 11.575400 2.015752 -8.646465 -12.522281 5.136321 9.292638 14.185144 -1.810520 0.334365 7.507231 0.000000 0.000000 0.000000 1.757704 -0.459744 11.444345 -2.437844 4.339394 -4.800225 -10.319560 1.133576 11.185660 8.383665 4.444856 8.705059 0.000000 0.000000 0.000000 0.156276 1.294624 -0.373767 -3.470046 0.100988 -12.008067 -1.544883 -3.985227 5.278018 -0.034635 -0.131559 -0.092596 -1.966553 -1.519859 6.757878 1.021421 1.766149 5.654300 0.000000 0.000000 0.000000 -0.105362 -1.079652 4.013528 8.054571 8.346186 -5.919703 2.835315 17.264425 -37.349650 -1.775923 -49.181686 -6.093000 0.000000 0.000000 0.000000 -4.268703 -0.218780 3.425183 7.233749 -9.848538 -7.648260 17.664688 -28.835730 -39.943428 -4.802987 44.802319 -5.600347 0.000000 0.000000 0.000000 
2.557762 36.619453 -10.689734 179.816970 -2.674024 179.561589 -2.626282 -0.741619 11.592027 1.997757 -8.630569 -12.512229 5.145904 9.366023 14.259295 -1.842024 0.312277 7.473427 0.000000 0.000000 0.000000 1.759496 -0.364919 11.417920 -2.494302 4.371118 -4.779631 -10.299723 1.085941 11.349988 8.425832 4.447692 8.636539 0.000000 0.000000 0.000000 0.135182 1.376285 -0.359724 -3.487433 0.181479 -11.974052 -1.521662 -3.945455 5.192203 -0.002517 -0.098826 -0.070339 -1.873132 -1.451435 6.848167 1.081329 1.721243 5.811033 0.000000 0.000000 0.000000 -0.081055 -1.097018 4.078167 8.068962 8.075924 -5.879992 2.855552 17.372800 -37.225023 -1.777835 -49.185353 -5.914519 0.000000 0.000000 0.000000 -4.234793 -0.245428 3.413801 7.235385 -9.833225 -7.613405 17.538439 -29.086606 -39.881328 -4.815414 44.772283 -5.588746 0.000000 0.000000 0.000000 
2.544579 36.616928 -10.693117 179.830630 -2.542011 179.630246 -2.648027 -0.715054 11.540966 2.017465 -8.633241 -12.535570 5.184305 9.418751 14.329595 -1.835609 0.323423 7.445002 0.000000 0.000000 0.000000 1.785252 -0.244550 11.311960 -2.519394 4.300780 -4.778154 -10.305429 1.051035 11.499016 8.475524 4.431399 8.572699 0.000000 0.000000 0.000000 0.150414 1.425506 -0.485603 -3.440801 0.253226 -11.975430 -1.459853 -3.895277 5.285019 -0.015644 -0.073072 -0.026258 -1.872211 -1.463905 6.650487 1.060467 1.618712 5.914877 0.000000 0.000000 0.000000 -0.038347 -1.066266 3.961952 8.000283 7.726967 -5.977829 2.855189 17.591786 -37.159163 -1.724009 -49.108165 -5.727570 0.000000 0.000000 0.000000 -4.193328 -0.239909 3.280006 7.186806 -9.794364 -7.813187 17.461688 -29.389136 -39.941464 -4.670929 44.753155 -5.431149 0.000000 0.000000 0.000000 
2.527118 36.614819 -10.681009 179.846189 -2.744430 179.663263 -2.642680 -0.726102 11.460502 2.023378 -8.674027 -12.601293 5.170938 9.405123 14.397923 -1.865791 0.297746 7.437234 0.000000 0.000000 0.000000 1.809566 -0.293979 11.283001 -2.586624 4.460167 -4.815240 -10.291575 0.947516 11.592912 8.546243 4.409198 8.652806 0.000000 0.000000 0.000000 0.143600 1.333415 -0.545804 -3.433572 0.210471 -11.962819 -1.444293 -3.898336 5.251015 0.053424 -0.117095 -0.089200 -1.743589 -1.501253 6.642226 1.219504 1.639990 6.112560 0.000000 0.000000 0.000000 -0.006905 -0.996902 3.939772 8.014699 7.336978 -6.073343 2.803105 17.895053 -37.072836 -1.586179 -49.013922 -5.551913 0.000000 0.000000 0.000000 -4.140025 -0.167509 3.248830 7.198375 -9.611498 -7.765133 17.501988 -29.666722 -40.173472 -4.706119 44.713451 -5.453962 0.000000 0.000000 0.000000 
2.511622 36.618938 -10.654917 179.891446 -2.684734 179.629372 -2.651194 -0.644051 11.447953 2.047361 -8.687576 -12.670695 5.195273 9.378293 14.498890 -1.848162 0.305610 7.447113 0.000000 0.000000 0.000000 1.845794 -0.227849 11.275260 -2.620203 4.306624 -4.787505 -10.284498 0.945028 11.544566 8.647264 4.376392 8.635670 0.000000 0.000000 0.000000 0.148748 1.423868 -0.536848 -3.336703 0.252399 -11.941636 -1.350235 -3.817082 5.236540 0.021332 -0.092356 -0.028869 -1.708074 -1.484304 6.505844 1.191157 1.527819 6.366358 0.000000 0.000000 0.000000 0.019579 -0.975999 3.849899 7.980617 6.790640 -6.145958 2.862031 18.220622 -36.883435 -1.461419 -48.973778 -5.294433 0.000000 0.000000 0.000000 -4.117720 -0.124174 3.163337 7.169863 -9.539326 -7.792333 17.545819 -30.128733 -40.132460 -4.684800 44.695921 -5.451857 0.000000 0.000000 0.000000 
2.497148 36.624241 -10.615685 179.889124 -2.580653 179.595111 -2.683305 -0.572050 11.481046 2.060995 -8.712989 -12.798632 5.225537 9.339552 14.597241 -1.780312 0.339556 7.471133 0.000000 0.000000 0.000000 1.854482 -0.143793 11.297708 -2.641642 4.101967 -4.834658 -10.273434 0.983721 11.459829 8.810106 4.350416 8.698170 0.000000 0.000000 0.000000 0.140891 1.539603 -0.460489 -3.242213 0.281164 -11.922061 -1.274105 -3.748050 5.194671 -0.017261 -0.065697 -0.062555 -1.685250 -1.432341 6.428700 1.021096 1.274620 6.635153 0.000000 0.000000 0.000000 0.101186 -0.943433 3.827798 7.879509 6.189046 -6.265397 2.867950 18.707316 -36.570687 -1.364163 -49.038791 -4.974535 0.000000 0.000000 0.000000 -4.038792 -0.149426 3.145962 7.165990 -9.344442 -7.745767 17.882096 -30.738327 -40.523755 -4.723416 44.969880 -5.597956 0.000000 0.000000 0.000000 
